<?xml version="1.0" encoding="UTF-8"?>
  <svg width="800" height="816" viewBox="0 0 800 816" xmlns="http://www.w3.org/2000/svg">
    <rect width="100%" height="100%" fill="#ffffff"/>
    <path d="                                                                                                                                                                                                                                                                                                                                                                                                                                                                                                                                                                                                                                                                                                                                                                                                                                                                                                                                                                                                                                                                                                                                                                                                                                                                                                                                                         M40 225.17L43.25 225.17L43.25 211.17L40 211.17Z M48 225.17L56.65 225.17L56.65 221.67L48 221.67Z M56 225.17L64.65 225.17L64.65 219.92L56 219.92Z M64 225.17L72.65 225.17L72.65 219.92L64 219.92Z M72 225.17L80.65 225.17L80.65 221.67L72 221.67Z M80 225.17L88.65 225.17L88.65 223.42L80 223.42Z M88 225.17L95.57 225.17L95.57 211.17L88 211.17Z M96 225.17L102.49 225.17L102.49 211.17L96 211.17Z M104 225.17L108.33 225.17L108.33 211.17L104 211.17Z M112 225.17L113.08 225.17L113.08 211.17L112 211.17Z                                                                        M688 225.17L689.08 225.17L689.08 211.17L688 211.17Z M696 225.17L699.25 225.17L699.25 211.17L696 211.17Z M704 225.17L710.49 225.17L710.49 211.17L704 211.17Z M712 225.17L719.57 225.17L719.57 211.17L712 211.17Z M720 225.17L728.65 225.17L728.65 223.42L720 223.42Z M728 225.17L736.65 225.17L736.65 221.67L728 221.67Z M736 225.17L744.65 225.17L744.65 219.92L736 219.92Z M744 225.17L752.65 225.17L752.65 219.92L744 219.92Z M752 225.17L760.65 225.17L760.65 221.67L752 221.67Z M760 225.17L763.25 225.17L763.25 211.17L760 211.17Z          M40 241.17L43.25 241.17L43.25 227.17L40 227.17Z M48 241.17L55.57 241.17L55.57 227.17L48 227.17Z M56 241.17L64.65 241.17L64.65 239.42L56 239.42Z M64 241.17L72.65 241.17L72.65 237.67L64 237.67Z M72 241.17L80.65 241.17L80.65 235.92L72 235.92Z M80 241.17L88.65 241.17L88.65 232.42L80 232.42Z M88 241.17L96.65 241.17L96.65 228.92L88 228.92Z M96 241.17L104.65 241.17L104.65 227.17L96 227.17Z M104 241.17L112.65 241.17L112.65 227.17L104 227.17Z M112 241.17L120.65 241.17L120.65 227.17L112 227.17Z M120 241.17L128.65 241.17L128.65 228.92L120 228.92Z M128 241.17L136.65 241.17L136.65 234.17L128 234.17Z M136 241.17L143.57 241.17L143.57 227.17L136 227.17Z M144 241.17L147.25 241.17L147.25 227.17L144 227.17Z M152 241.17L153.08 241.17L153.08 227.17L152 227.17Z                                                               M656 241.17L659.25 241.17L659.25 227.17L656 227.17Z M664 241.17L671.57 241.17L671.57 227.17L664 227.17Z M672 241.17L680.65 241.17L680.65 235.92L672 235.92Z M680 241.17L688.65 241.17L688.65 230.67L680 230.67Z M688 241.17L696.65 241.17L696.65 227.17L688 227.17Z M696 241.17L704.65 241.17L704.65 227.17L696 227.17Z M704 241.17L712.65 241.17L712.65 227.17L704 227.17Z M712 241.17L720.65 241.17L720.65 228.92L712 228.92Z M720 241.17L728.65 241.17L728.65 232.42L720 232.42Z M728 241.17L736.65 241.17L736.65 235.92L728 235.92Z M736 241.17L744.65 241.17L744.65 237.67L736 237.67Z M744 241.17L752.65 241.17L752.65 239.42L744 239.42Z M752 241.17L759.57 241.17L759.57 227.17L752 227.17Z M760 241.17L762.17 241.17L762.17 227.17L760 227.17Z                 M96 257.17L98.17 257.17L98.17 243.17L96 243.17Z M104 257.17L109.41 257.17L109.41 243.17L104 243.17Z M112 257.17L120.65 257.17L120.65 253.67L112 253.67Z M120 257.17L128.65 257.17L128.65 246.67L120 246.67Z M128 257.17L136.65 257.17L136.65 243.17L128 243.17Z M136 257.17L144.65 257.17L144.65 243.17L136 243.17Z M144 257.17L152.65 257.17L152.65 243.17L144 243.17Z M152 257.17L160.65 257.17L160.65 244.92L152 244.92Z M160 257.17L168.65 257.17L168.65 251.92L160 251.92Z M168 257.17L172.33 257.17L172.33 243.17L168 243.17Z M176 257.17L177.08 257.17L177.08 243.17L176 243.17Z                                                        M624 257.17L625.08 257.17L625.08 243.17L624 243.17Z M632 257.17L636.33 257.17L636.33 243.17L632 243.17Z M640 257.17L648.65 257.17L648.65 253.67L640 253.67Z M648 257.17L656.65 257.17L656.65 244.92L648 244.92Z M656 257.17L664.65 257.17L664.65 243.17L656 243.17Z M664 257.17L672.65 257.17L672.65 243.17L664 243.17Z M672 257.17L680.65 257.17L680.65 243.17L672 243.17Z M680 257.17L688.65 257.17L688.65 246.67L680 246.67Z M688 257.17L696.65 257.17L696.65 253.67L688 253.67Z M696 257.17L701.41 257.17L701.41 243.17L696 243.17Z M704 257.17L706.17 257.17L706.17 243.17L704 243.17Z                            M128 273.17L130.17 273.17L130.17 259.17L128 259.17Z M136 273.17L143.57 273.17L143.57 259.17L136 259.17Z M144 273.17L152.65 273.17L152.65 264.42L144 264.42Z M152 273.17L160.65 273.17L160.65 259.17L152 259.17Z M160 273.17L168.65 273.17L168.65 259.17L160 259.17Z M168 273.17L176.65 273.17L176.65 259.17L168 259.17Z M176 273.17L184.65 273.17L184.65 260.92L176 260.92Z M184 273.17L192.65 273.17L192.65 267.92L184 267.92Z M192 273.17L197.41 273.17L197.41 259.17L192 259.17Z M200 273.17L201.08 273.17L201.08 259.17L200 259.17Z                                                  M600 273.17L601.08 273.17L601.08 259.17L600 259.17Z M608 273.17L612.33 273.17L612.33 259.17L608 259.17Z M616 273.17L624.65 273.17L624.65 269.67L616 269.67Z M624 273.17L632.65 273.17L632.65 260.92L624 260.92Z M632 273.17L640.65 273.17L640.65 259.17L632 259.17Z M640 273.17L648.65 273.17L648.65 259.17L640 259.17Z M648 273.17L656.65 273.17L656.65 259.17L648 259.17Z M656 273.17L664.65 273.17L664.65 264.42L656 264.42Z M664 273.17L671.57 273.17L671.57 259.17L664 259.17Z M672 273.17L674.17 273.17L674.17 259.17L672 259.17Z                                   M152 289.17L155.25 289.17L155.25 275.17L152 275.17Z M160 289.17L168.65 289.17L168.65 285.67L160 285.67Z M168 289.17L176.65 289.17L176.65 275.17L168 275.17Z M176 289.17L184.65 289.17L184.65 275.17L176 275.17Z M184 289.17L192.65 289.17L192.65 275.17L184 275.17Z M192 289.17L200.65 289.17L200.65 275.17L192 275.17Z M200 289.17L208.65 289.17L208.65 276.92L200 276.92Z M208 289.17L216.65 289.17L216.65 283.92L208 283.92Z M216 289.17L222.49 289.17L222.49 275.17L216 275.17Z M224 289.17L226.17 289.17L226.17 275.17L224 275.17Z               M344 289.17L345.08 289.17L345.08 275.17L344 275.17Z M352 289.17L354.17 289.17L354.17 275.17L352 275.17Z M360 289.17L362.17 289.17L362.17 275.17L360 275.17Z M368 289.17L370.17 289.17L370.17 275.17L368 275.17Z M376 289.17L379.25 289.17L379.25 275.17L376 275.17Z M384 289.17L387.25 289.17L387.25 275.17L384 275.17Z M392 289.17L395.25 289.17L395.25 275.17L392 275.17Z M400 289.17L403.25 289.17L403.25 275.17L400 275.17Z M408 289.17L411.25 289.17L411.25 275.17L408 275.17Z M416 289.17L419.25 289.17L419.25 275.17L416 275.17Z M424 289.17L427.25 289.17L427.25 275.17L424 275.17Z M432 289.17L434.17 289.17L434.17 275.17L432 275.17Z M440 289.17L442.17 289.17L442.17 275.17L440 275.17Z M448 289.17L450.17 289.17L450.17 275.17L448 275.17Z M456 289.17L457.08 289.17L457.08 275.17L456 275.17Z               M576 289.17L577.08 289.17L577.08 275.17L576 275.17Z M584 289.17L589.41 289.17L589.41 275.17L584 275.17Z M592 289.17L600.65 289.17L600.65 285.67L592 285.67Z M600 289.17L608.65 289.17L608.65 276.92L600 276.92Z M608 289.17L616.65 289.17L616.65 275.17L608 275.17Z M616 289.17L624.65 289.17L624.65 275.17L616 275.17Z M624 289.17L632.65 289.17L632.65 275.17L624 275.17Z M632 289.17L640.65 289.17L640.65 275.17L632 275.17Z M640 289.17L648.65 289.17L648.65 285.67L640 285.67Z M648 289.17L651.25 289.17L651.25 275.17L648 275.17Z                                        M168 305.17L170.17 305.17L170.17 291.17L168 291.17Z M176 305.17L183.57 305.17L183.57 291.17L176 291.17Z M184 305.17L192.65 305.17L192.65 294.67L184 294.67Z M192 305.17L200.65 305.17L200.65 291.17L192 291.17Z M200 305.17L208.65 305.17L208.65 291.17L200 291.17Z M208 305.17L216.65 305.17L216.65 291.17L208 291.17Z M216 305.17L224.65 305.17L224.65 291.17L216 291.17Z M224 305.17L232.65 305.17L232.65 291.17L224 291.17Z M232 305.17L240.65 305.17L240.65 294.67L232 294.67Z M240 305.17L248.65 305.17L248.65 299.92L240 299.92Z M248 305.17L256.65 305.17L256.65 303.42L248 303.42Z M256 305.17L263.57 305.17L263.57 291.17L256 291.17Z M264 305.17L270.49 305.17L270.49 291.17L264 291.17Z M272 305.17L277.41 305.17L277.41 291.17L272 291.17Z M280 305.17L285.41 305.17L285.41 291.17L280 291.17Z M288 305.17L293.41 305.17L293.41 291.17L288 291.17Z M296 305.17L302.49 305.17L302.49 291.17L296 291.17Z M304 305.17L311.57 305.17L311.57 291.17L304 291.17Z M312 305.17L320.65 305.17L320.65 303.42L312 303.42Z M320 305.17L328.65 305.17L328.65 299.92L320 299.92Z M328 305.17L336.65 305.17L336.65 296.42L328 296.42Z M336 305.17L344.65 305.17L344.65 292.92L336 292.92Z M344 305.17L352.65 305.17L352.65 291.17L344 291.17Z M352 305.17L360.65 305.17L360.65 291.17L352 291.17Z M360 305.17L368.65 305.17L368.65 291.17L360 291.17Z M368 305.17L376.65 305.17L376.65 291.17L368 291.17Z M376 305.17L384.65 305.17L384.65 291.17L376 291.17Z M384 305.17L392.65 305.17L392.65 291.17L384 291.17Z M392 305.17L400.65 305.17L400.65 291.17L392 291.17Z M400 305.17L408.65 305.17L408.65 291.17L400 291.17Z M408 305.17L416.65 305.17L416.65 291.17L408 291.17Z M416 305.17L424.65 305.17L424.65 291.17L416 291.17Z M424 305.17L432.65 305.17L432.65 291.17L424 291.17Z M432 305.17L440.65 305.17L440.65 291.17L432 291.17Z M440 305.17L448.65 305.17L448.65 291.17L440 291.17Z M448 305.17L456.65 305.17L456.65 291.17L448 291.17Z M456 305.17L464.65 305.17L464.65 291.17L456 291.17Z M464 305.17L472.65 305.17L472.65 292.92L464 292.92Z M472 305.17L480.65 305.17L480.65 296.42L472 296.42Z M480 305.17L488.65 305.17L488.65 299.92L480 299.92Z M488 305.17L496.65 305.17L496.65 303.42L488 303.42Z M496 305.17L503.57 305.17L503.57 291.17L496 291.17Z M504 305.17L510.49 305.17L510.49 291.17L504 291.17Z M512 305.17L517.41 305.17L517.41 291.17L512 291.17Z M520 305.17L525.41 305.17L525.41 291.17L520 291.17Z M528 305.17L533.41 305.17L533.41 291.17L528 291.17Z M536 305.17L542.49 305.17L542.49 291.17L536 291.17Z M544 305.17L551.57 305.17L551.57 291.17L544 291.17Z M552 305.17L560.65 305.17L560.65 303.42L552 303.42Z M560 305.17L568.65 305.17L568.65 299.92L560 299.92Z M568 305.17L576.65 305.17L576.65 294.67L568 294.67Z M576 305.17L584.65 305.17L584.65 291.17L576 291.17Z M584 305.17L592.65 305.17L592.65 291.17L584 291.17Z M592 305.17L600.65 305.17L600.65 291.17L592 291.17Z M600 305.17L608.65 305.17L608.65 291.17L600 291.17Z M608 305.17L616.65 305.17L616.65 291.17L608 291.17Z M616 305.17L624.65 305.17L624.65 294.67L616 294.67Z M624 305.17L631.57 305.17L631.57 291.17L624 291.17Z M632 305.17L633.08 305.17L633.08 291.17L632 291.17Z                                            M184 321.17L185.08 321.17L185.08 307.17L184 307.17Z M192 321.17L197.41 321.17L197.41 307.17L192 307.17Z M200 321.17L208.65 321.17L208.65 314.17L200 314.17Z M208 321.17L216.65 321.17L216.65 307.17L208 307.17Z M216 321.17L224.65 321.17L224.65 307.17L216 307.17Z M224 321.17L232.65 321.17L232.65 307.17L224 307.17Z M232 321.17L240.65 321.17L240.65 307.17L232 307.17Z M240 321.17L248.65 321.17L248.65 307.17L240 307.17Z M248 321.17L256.65 321.17L256.65 307.17L248 307.17Z M256 321.17L264.65 321.17L264.65 307.17L256 307.17Z M264 321.17L272.65 321.17L272.65 307.17L264 307.17Z M272 321.17L280.65 321.17L280.65 307.17L272 307.17Z M280 321.17L288.65 321.17L288.65 307.17L280 307.17Z M288 321.17L296.65 321.17L296.65 307.17L288 307.17Z M296 321.17L304.65 321.17L304.65 307.17L296 307.17Z M304 321.17L312.65 321.17L312.65 307.17L304 307.17Z M312 321.17L320.65 321.17L320.65 307.17L312 307.17Z M320 321.17L328.65 321.17L328.65 307.17L320 307.17Z M328 321.17L336.65 321.17L336.65 307.17L328 307.17Z M336 321.17L344.65 321.17L344.65 307.17L336 307.17Z M344 321.17L352.65 321.17L352.65 307.17L344 307.17Z M352 321.17L360.65 321.17L360.65 307.17L352 307.17Z M360 321.17L368.65 321.17L368.65 307.17L360 307.17Z M368 321.17L376.65 321.17L376.65 307.17L368 307.17Z M376 321.17L384.65 321.17L384.65 307.17L376 307.17Z M384 321.17L392.65 321.17L392.65 307.17L384 307.17Z M392 321.17L400.65 321.17L400.65 307.17L392 307.17Z M400 321.17L408.65 321.17L408.65 307.17L400 307.17Z M408 321.17L416.65 321.17L416.65 307.17L408 307.17Z M416 321.17L424.65 321.17L424.65 307.17L416 307.17Z M424 321.17L432.65 321.17L432.65 307.17L424 307.17Z M432 321.17L440.65 321.17L440.65 307.17L432 307.17Z M440 321.17L448.65 321.17L448.65 307.17L440 307.17Z M448 321.17L456.65 321.17L456.65 307.17L448 307.17Z M456 321.17L464.65 321.17L464.65 307.17L456 307.17Z M464 321.17L472.65 321.17L472.65 307.17L464 307.17Z M472 321.17L480.65 321.17L480.65 307.17L472 307.17Z M480 321.17L488.65 321.17L488.65 307.17L480 307.17Z M488 321.17L496.65 321.17L496.65 307.17L488 307.17Z M496 321.17L504.65 321.17L504.65 307.17L496 307.17Z M504 321.17L512.65 321.17L512.65 307.17L504 307.17Z M512 321.17L520.65 321.17L520.65 307.17L512 307.17Z M520 321.17L528.65 321.17L528.65 307.17L520 307.17Z M528 321.17L536.65 321.17L536.65 307.17L528 307.17Z M536 321.17L544.65 321.17L544.65 307.17L536 307.17Z M544 321.17L552.65 321.17L552.65 307.17L544 307.17Z M552 321.17L560.65 321.17L560.65 307.17L552 307.17Z M560 321.17L568.65 321.17L568.65 307.17L560 307.17Z M568 321.17L576.65 321.17L576.65 307.17L568 307.17Z M576 321.17L584.65 321.17L584.65 307.17L576 307.17Z M584 321.17L592.65 321.17L592.65 307.17L584 307.17Z M592 321.17L600.65 321.17L600.65 307.17L592 307.17Z M600 321.17L608.65 321.17L608.65 315.92L600 315.92Z M608 321.17L613.41 321.17L613.41 307.17L608 307.17Z M616 321.17L617.08 321.17L617.08 307.17L616 307.17Z                                                 M208 337.17L209.08 337.17L209.08 323.17L208 323.17Z M216 337.17L221.41 337.17L221.41 323.17L216 323.17Z M224 337.17L232.65 337.17L232.65 333.67L224 333.67Z M232 337.17L240.65 337.17L240.65 328.42L232 328.42Z M240 337.17L248.65 337.17L248.65 324.92L240 324.92Z M248 337.17L256.65 337.17L256.65 323.17L248 323.17Z M256 337.17L264.65 337.17L264.65 323.17L256 323.17Z M264 337.17L272.65 337.17L272.65 323.17L264 323.17Z M272 337.17L280.65 337.17L280.65 323.17L272 323.17Z M280 337.17L288.65 337.17L288.65 323.17L280 323.17Z M288 337.17L296.65 337.17L296.65 323.17L288 323.17Z M296 337.17L304.65 337.17L304.65 323.17L296 323.17Z M304 337.17L312.65 337.17L312.65 323.17L304 323.17Z M312 337.17L320.65 337.17L320.65 323.17L312 323.17Z M320 337.17L328.65 337.17L328.65 323.17L320 323.17Z M328 337.17L336.65 337.17L336.65 323.17L328 323.17Z M336 337.17L344.65 337.17L344.65 323.17L336 323.17Z M344 337.17L352.65 337.17L352.65 323.17L344 323.17Z M352 337.17L360.65 337.17L360.65 323.17L352 323.17Z M360 337.17L368.65 337.17L368.65 323.17L360 323.17Z M368 337.17L376.65 337.17L376.65 323.17L368 323.17Z M376 337.17L384.65 337.17L384.65 323.17L376 323.17Z M384 337.17L392.65 337.17L392.65 323.17L384 323.17Z M392 337.17L400.65 337.17L400.65 323.17L392 323.17Z M400 337.17L408.65 337.17L408.65 323.17L400 323.17Z M408 337.17L416.65 337.17L416.65 323.17L408 323.17Z M416 337.17L424.65 337.17L424.65 323.17L416 323.17Z M424 337.17L432.65 337.17L432.65 323.17L424 323.17Z M432 337.17L440.65 337.17L440.65 323.17L432 323.17Z M440 337.17L448.65 337.17L448.65 323.17L440 323.17Z M448 337.17L456.65 337.17L456.65 323.17L448 323.17Z M456 337.17L464.65 337.17L464.65 323.17L456 323.17Z M464 337.17L472.65 337.17L472.65 323.17L464 323.17Z M472 337.17L480.65 337.17L480.65 323.17L472 323.17Z M480 337.17L488.65 337.17L488.65 323.17L480 323.17Z M488 337.17L496.65 337.17L496.65 323.17L488 323.17Z M496 337.17L504.65 337.17L504.65 323.17L496 323.17Z M504 337.17L512.65 337.17L512.65 323.17L504 323.17Z M512 337.17L520.65 337.17L520.65 323.17L512 323.17Z M520 337.17L528.65 337.17L528.65 323.17L520 323.17Z M528 337.17L536.65 337.17L536.65 323.17L528 323.17Z M536 337.17L544.65 337.17L544.65 323.17L536 323.17Z M544 337.17L552.65 337.17L552.65 323.17L544 323.17Z M552 337.17L560.65 337.17L560.65 323.17L552 323.17Z M560 337.17L568.65 337.17L568.65 324.92L560 324.92Z M568 337.17L576.65 337.17L576.65 328.42L568 328.42Z M576 337.17L584.65 337.17L584.65 333.67L576 333.67Z M584 337.17L589.41 337.17L589.41 323.17L584 323.17Z M592 337.17L593.08 337.17L593.08 323.17L592 323.17Z                                                         M248 353.17L250.17 353.17L250.17 339.17L248 339.17Z M256 353.17L262.49 353.17L262.49 339.17L256 339.17Z M264 353.17L272.65 353.17L272.65 347.92L264 347.92Z M272 353.17L280.65 353.17L280.65 339.17L272 339.17Z M280 353.17L288.65 353.17L288.65 339.17L280 339.17Z M288 353.17L296.65 353.17L296.65 339.17L288 339.17Z M296 353.17L304.65 353.17L304.65 339.17L296 339.17Z M304 353.17L312.65 353.17L312.65 339.17L304 339.17Z M312 353.17L320.65 353.17L320.65 339.17L312 339.17Z M320 353.17L328.65 353.17L328.65 339.17L320 339.17Z M328 353.17L336.65 353.17L336.65 339.17L328 339.17Z M336 353.17L344.65 353.17L344.65 339.17L336 339.17Z M344 353.17L352.65 353.17L352.65 339.17L344 339.17Z M352 353.17L360.65 353.17L360.65 339.17L352 339.17Z M360 353.17L368.65 353.17L368.65 339.17L360 339.17Z M368 353.17L376.65 353.17L376.65 339.17L368 339.17Z M376 353.17L384.65 353.17L384.65 339.17L376 339.17Z M384 353.17L392.65 353.17L392.65 339.17L384 339.17Z M392 353.17L400.65 353.17L400.65 339.17L392 339.17Z M400 353.17L408.65 353.17L408.65 339.17L400 339.17Z M408 353.17L416.65 353.17L416.65 339.17L408 339.17Z M416 353.17L424.65 353.17L424.65 339.17L416 339.17Z M424 353.17L432.65 353.17L432.65 339.17L424 339.17Z M432 353.17L440.65 353.17L440.65 339.17L432 339.17Z M440 353.17L448.65 353.17L448.65 339.17L440 339.17Z M448 353.17L456.65 353.17L456.65 339.17L448 339.17Z M456 353.17L464.65 353.17L464.65 339.17L456 339.17Z M464 353.17L472.65 353.17L472.65 339.17L464 339.17Z M472 353.17L480.65 353.17L480.65 339.17L472 339.17Z M480 353.17L488.65 353.17L488.65 339.17L480 339.17Z M488 353.17L496.65 353.17L496.65 339.17L488 339.17Z M496 353.17L504.65 353.17L504.65 339.17L496 339.17Z M504 353.17L512.65 353.17L512.65 339.17L504 339.17Z M512 353.17L520.65 353.17L520.65 339.17L512 339.17Z M520 353.17L528.65 353.17L528.65 339.17L520 339.17Z M528 353.17L536.65 353.17L536.65 340.92L528 340.92Z M536 353.17L544.65 353.17L544.65 347.92L536 347.92Z M544 353.17L550.49 353.17L550.49 339.17L544 339.17Z M552 353.17L554.17 353.17L554.17 339.17L552 339.17Z                                                            M232 369.17L235.25 369.17L235.25 355.17L232 355.17Z M240 369.17L248.65 369.17L248.65 360.42L240 360.42Z M248 369.17L256.65 369.17L256.65 355.17L248 355.17Z M256 369.17L264.65 369.17L264.65 355.17L256 355.17Z M264 369.17L272.65 369.17L272.65 355.17L264 355.17Z M272 369.17L280.65 369.17L280.65 355.17L272 355.17Z M280 369.17L288.65 369.17L288.65 355.17L280 355.17Z M288 369.17L296.65 369.17L296.65 355.17L288 355.17Z M296 369.17L304.65 369.17L304.65 355.17L296 355.17Z M304 369.17L312.65 369.17L312.65 355.17L304 355.17Z M312 369.17L320.65 369.17L320.65 355.17L312 355.17Z M320 369.17L328.65 369.17L328.65 355.17L320 355.17Z M328 369.17L336.65 369.17L336.65 355.17L328 355.17Z M336 369.17L344.65 369.17L344.65 355.17L336 355.17Z M344 369.17L352.65 369.17L352.65 355.17L344 355.17Z M352 369.17L360.65 369.17L360.65 355.17L352 355.17Z M360 369.17L368.65 369.17L368.65 355.17L360 355.17Z M368 369.17L376.65 369.17L376.65 355.17L368 355.17Z M376 369.17L384.65 369.17L384.65 355.17L376 355.17Z M384 369.17L392.65 369.17L392.65 355.17L384 355.17Z M392 369.17L400.65 369.17L400.65 355.17L392 355.17Z M400 369.17L408.65 369.17L408.65 355.17L400 355.17Z M408 369.17L416.65 369.17L416.65 355.17L408 355.17Z M416 369.17L424.65 369.17L424.65 355.17L416 355.17Z M424 369.17L432.65 369.17L432.65 355.17L424 355.17Z M432 369.17L440.65 369.17L440.65 355.17L432 355.17Z M440 369.17L448.65 369.17L448.65 355.17L440 355.17Z M448 369.17L456.65 369.17L456.65 355.17L448 355.17Z M456 369.17L464.65 369.17L464.65 355.17L456 355.17Z M464 369.17L472.65 369.17L472.65 355.17L464 355.17Z M472 369.17L480.65 369.17L480.65 355.17L472 355.17Z M480 369.17L488.65 369.17L488.65 355.17L480 355.17Z M488 369.17L496.65 369.17L496.65 355.17L488 355.17Z M496 369.17L504.65 369.17L504.65 355.17L496 355.17Z M504 369.17L512.65 369.17L512.65 355.17L504 355.17Z M512 369.17L520.65 369.17L520.65 355.17L512 355.17Z M520 369.17L528.65 369.17L528.65 355.17L520 355.17Z M528 369.17L536.65 369.17L536.65 355.17L528 355.17Z M536 369.17L544.65 369.17L544.65 355.17L536 355.17Z M544 369.17L552.65 369.17L552.65 355.17L544 355.17Z M552 369.17L560.65 369.17L560.65 355.17L552 355.17Z M560 369.17L568.65 369.17L568.65 360.42L560 360.42Z M568 369.17L571.25 369.17L571.25 355.17L568 355.17Z                                                          M232 385.17L233.08 385.17L233.08 371.17L232 371.17Z M240 385.17L248.65 385.17L248.65 383.42L240 383.42Z M248 385.17L256.65 385.17L256.65 376.42L248 376.42Z M256 385.17L264.65 385.17L264.65 372.92L256 372.92Z M264 385.17L272.65 385.17L272.65 371.17L264 371.17Z M272 385.17L280.65 385.17L280.65 371.17L272 371.17Z M280 385.17L288.65 385.17L288.65 372.92L280 372.92Z M288 385.17L296.65 385.17L296.65 376.42L288 376.42Z M296 385.17L304.65 385.17L304.65 381.67L296 381.67Z M304 385.17L309.41 385.17L309.41 371.17L304 371.17Z M312 385.17L319.57 385.17L319.57 371.17L312 371.17Z M320 385.17L328.65 385.17L328.65 371.17L320 371.17Z M328 385.17L336.65 385.17L336.65 371.17L328 371.17Z M336 385.17L344.65 385.17L344.65 371.17L336 371.17Z M344 385.17L352.65 385.17L352.65 371.17L344 371.17Z M352 385.17L360.65 385.17L360.65 371.17L352 371.17Z M360 385.17L368.65 385.17L368.65 371.17L360 371.17Z M368 385.17L376.65 385.17L376.65 371.17L368 371.17Z M376 385.17L384.65 385.17L384.65 371.17L376 371.17Z M384 385.17L392.65 385.17L392.65 371.17L384 371.17Z M392 385.17L400.65 385.17L400.65 371.17L392 371.17Z M400 385.17L408.65 385.17L408.65 371.17L400 371.17Z M408 385.17L416.65 385.17L416.65 371.17L408 371.17Z M416 385.17L424.65 385.17L424.65 371.17L416 371.17Z M424 385.17L432.65 385.17L432.65 371.17L424 371.17Z M432 385.17L440.65 385.17L440.65 371.17L432 371.17Z M440 385.17L448.65 385.17L448.65 371.17L440 371.17Z M448 385.17L456.65 385.17L456.65 371.17L448 371.17Z M456 385.17L464.65 385.17L464.65 371.17L456 371.17Z M464 385.17L472.65 385.17L472.65 371.17L464 371.17Z M472 385.17L480.65 385.17L480.65 371.17L472 371.17Z M480 385.17L488.65 385.17L488.65 371.17L480 371.17Z M488 385.17L493.41 385.17L493.41 371.17L488 371.17Z M496 385.17L501.41 385.17L501.41 371.17L496 371.17Z M504 385.17L512.65 385.17L512.65 381.67L504 381.67Z M512 385.17L520.65 385.17L520.65 376.42L512 376.42Z M520 385.17L528.65 385.17L528.65 372.92L520 372.92Z M528 385.17L536.65 385.17L536.65 371.17L528 371.17Z M536 385.17L544.65 385.17L544.65 371.17L536 371.17Z M544 385.17L552.65 385.17L552.65 372.92L544 372.92Z M552 385.17L560.65 385.17L560.65 376.42L552 376.42Z M560 385.17L567.57 385.17L567.57 371.17L560 371.17Z M568 385.17L569.08 385.17L569.08 371.17L568 371.17Z                                                                    M312 401.17L314.17 401.17L314.17 387.17L312 387.17Z M320 401.17L328.65 401.17L328.65 387.17L320 387.17Z M328 401.17L336.65 401.17L336.65 387.17L328 387.17Z M336 401.17L344.65 401.17L344.65 387.17L336 387.17Z M344 401.17L352.65 401.17L352.65 387.17L344 387.17Z M352 401.17L360.65 401.17L360.65 387.17L352 387.17Z M360 401.17L368.65 401.17L368.65 387.17L360 387.17Z M368 401.17L376.65 401.17L376.65 387.17L368 387.17Z M376 401.17L384.65 401.17L384.65 387.17L376 387.17Z M384 401.17L392.65 401.17L392.65 387.17L384 387.17Z M392 401.17L400.65 401.17L400.65 387.17L392 387.17Z M400 401.17L408.65 401.17L408.65 387.17L400 387.17Z M408 401.17L416.65 401.17L416.65 387.17L408 387.17Z M416 401.17L424.65 401.17L424.65 387.17L416 387.17Z M424 401.17L432.65 401.17L432.65 387.17L424 387.17Z M432 401.17L440.65 401.17L440.65 387.17L432 387.17Z M440 401.17L448.65 401.17L448.65 387.17L440 387.17Z M448 401.17L456.65 401.17L456.65 387.17L448 387.17Z M456 401.17L464.65 401.17L464.65 387.17L456 387.17Z M464 401.17L472.65 401.17L472.65 387.17L464 387.17Z M472 401.17L480.65 401.17L480.65 387.17L472 387.17Z M480 401.17L488.65 401.17L488.65 388.92L480 388.92Z M488 401.17L489.08 401.17L489.08 387.17L488 387.17Z                                                                               M320 417.17L325.41 417.17L325.41 403.17L320 403.17Z M328 417.17L336.65 417.17L336.65 403.17L328 403.17Z M336 417.17L344.65 417.17L344.65 403.17L336 403.17Z M344 417.17L352.65 417.17L352.65 403.17L344 403.17Z M352 417.17L360.65 417.17L360.65 403.17L352 403.17Z M360 417.17L368.65 417.17L368.65 403.17L360 403.17Z M368 417.17L376.65 417.17L376.65 403.17L368 403.17Z M376 417.17L384.65 417.17L384.65 403.17L376 403.17Z M384 417.17L392.65 417.17L392.65 403.17L384 403.17Z M392 417.17L400.65 417.17L400.65 403.17L392 403.17Z M400 417.17L408.65 417.17L408.65 403.17L400 403.17Z M408 417.17L416.65 417.17L416.65 403.17L408 403.17Z M416 417.17L424.65 417.17L424.65 403.17L416 403.17Z M424 417.17L432.65 417.17L432.65 403.17L424 403.17Z M432 417.17L440.65 417.17L440.65 403.17L432 403.17Z M440 417.17L448.65 417.17L448.65 403.17L440 403.17Z M448 417.17L456.65 417.17L456.65 403.17L448 403.17Z M456 417.17L464.65 417.17L464.65 403.17L456 403.17Z M464 417.17L472.65 417.17L472.65 403.17L464 403.17Z M472 417.17L480.65 417.17L480.65 403.17L472 403.17Z M480 417.17L484.33 417.17L484.33 403.17L480 403.17Z                                                                                 M328 433.17L336.65 433.17L336.65 431.42L328 431.42Z M336 433.17L344.65 433.17L344.65 419.17L336 419.17Z M344 433.17L352.65 433.17L352.65 419.17L344 419.17Z M352 433.17L360.65 433.17L360.65 419.17L352 419.17Z M360 433.17L368.65 433.17L368.65 419.17L360 419.17Z M368 433.17L376.65 433.17L376.65 419.17L368 419.17Z M376 433.17L384.65 433.17L384.65 419.17L376 419.17Z M384 433.17L392.65 433.17L392.65 419.17L384 419.17Z M392 433.17L400.65 433.17L400.65 419.17L392 419.17Z M400 433.17L408.65 433.17L408.65 419.17L400 419.17Z M408 433.17L416.65 433.17L416.65 419.17L408 419.17Z M416 433.17L424.65 433.17L424.65 419.17L416 419.17Z M424 433.17L432.65 433.17L432.65 419.17L424 419.17Z M432 433.17L440.65 433.17L440.65 419.17L432 419.17Z M440 433.17L448.65 433.17L448.65 419.17L440 419.17Z M448 433.17L456.65 433.17L456.65 419.17L448 419.17Z M456 433.17L464.65 433.17L464.65 419.17L456 419.17Z M464 433.17L472.65 433.17L472.65 419.17L464 419.17Z M472 433.17L478.49 433.17L478.49 419.17L472 419.17Z                                                                                   M336 449.17L344.65 449.17L344.65 445.67L336 445.67Z M344 449.17L352.65 449.17L352.65 435.17L344 435.17Z M352 449.17L360.65 449.17L360.65 435.17L352 435.17Z M360 449.17L368.65 449.17L368.65 435.17L360 435.17Z M368 449.17L376.65 449.17L376.65 435.17L368 435.17Z M376 449.17L384.65 449.17L384.65 435.17L376 435.17Z M384 449.17L392.65 449.17L392.65 435.17L384 435.17Z M392 449.17L400.65 449.17L400.65 435.17L392 435.17Z M400 449.17L408.65 449.17L408.65 435.17L400 435.17Z M408 449.17L416.65 449.17L416.65 435.17L408 435.17Z M416 449.17L424.65 449.17L424.65 435.17L416 435.17Z M424 449.17L432.65 449.17L432.65 435.17L424 435.17Z M432 449.17L440.65 449.17L440.65 435.17L432 435.17Z M440 449.17L448.65 449.17L448.65 435.17L440 435.17Z M448 449.17L456.65 449.17L456.65 435.17L448 435.17Z M456 449.17L464.65 449.17L464.65 435.17L456 435.17Z M464 449.17L471.57 449.17L471.57 435.17L464 435.17Z                                                                                     M344 465.17L352.65 465.17L352.65 461.67L344 461.67Z M352 465.17L360.65 465.17L360.65 451.17L352 451.17Z M360 465.17L368.65 465.17L368.65 451.17L360 451.17Z M368 465.17L376.65 465.17L376.65 451.17L368 451.17Z M376 465.17L384.65 465.17L384.65 451.17L376 451.17Z M384 465.17L392.65 465.17L392.65 451.17L384 451.17Z M392 465.17L400.65 465.17L400.65 451.17L392 451.17Z M400 465.17L408.65 465.17L408.65 451.17L400 451.17Z M408 465.17L416.65 465.17L416.65 451.17L408 451.17Z M416 465.17L424.65 465.17L424.65 451.17L416 451.17Z M424 465.17L432.65 465.17L432.65 451.17L424 451.17Z M432 465.17L440.65 465.17L440.65 451.17L432 451.17Z M440 465.17L448.65 465.17L448.65 451.17L440 451.17Z M448 465.17L456.65 465.17L456.65 451.17L448 451.17Z M456 465.17L464.65 465.17L464.65 461.67L456 461.67Z                                                                                      M344 481.17L345.08 481.17L345.08 467.17L344 467.17Z M352 481.17L360.65 481.17L360.65 472.42L352 472.42Z M360 481.17L368.65 481.17L368.65 467.17L360 467.17Z M368 481.17L376.65 481.17L376.65 467.17L368 467.17Z M376 481.17L384.65 481.17L384.65 467.17L376 467.17Z M384 481.17L392.65 481.17L392.65 467.17L384 467.17Z M392 481.17L400.65 481.17L400.65 467.17L392 467.17Z M400 481.17L408.65 481.17L408.65 467.17L400 467.17Z M408 481.17L416.65 481.17L416.65 467.17L408 467.17Z M416 481.17L424.65 481.17L424.65 467.17L416 467.17Z M424 481.17L432.65 481.17L432.65 467.17L424 467.17Z M432 481.17L440.65 481.17L440.65 467.17L432 467.17Z M440 481.17L448.65 481.17L448.65 467.17L440 467.17Z M448 481.17L456.65 481.17L456.65 472.42L448 472.42Z M456 481.17L457.08 481.17L457.08 467.17L456 467.17Z                                                                                       M352 497.17L360.65 497.17L360.65 493.67L352 493.67Z M360 497.17L368.65 497.17L368.65 483.17L360 483.17Z M368 497.17L376.65 497.17L376.65 483.17L368 483.17Z M376 497.17L384.65 497.17L384.65 483.17L376 483.17Z M384 497.17L392.65 497.17L392.65 483.17L384 483.17Z M392 497.17L400.65 497.17L400.65 483.17L392 483.17Z M400 497.17L408.65 497.17L408.65 483.17L400 483.17Z M408 497.17L416.65 497.17L416.65 483.17L408 483.17Z M416 497.17L424.65 497.17L424.65 483.17L416 483.17Z M424 497.17L432.65 497.17L432.65 483.17L424 483.17Z M432 497.17L440.65 497.17L440.65 483.17L432 483.17Z M440 497.17L448.65 497.17L448.65 483.17L440 483.17Z M448 497.17L456.65 497.17L456.65 495.42L448 495.42Z                                                                                       M344 513.17L352.65 513.17L352.65 511.42L344 511.42Z M352 513.17L360.65 513.17L360.65 499.17L352 499.17Z M360 513.17L368.65 513.17L368.65 499.17L360 499.17Z M368 513.17L376.65 513.17L376.65 499.17L368 499.17Z M376 513.17L384.65 513.17L384.65 499.17L376 499.17Z M384 513.17L392.65 513.17L392.65 499.17L384 499.17Z M392 513.17L400.65 513.17L400.65 499.17L392 499.17Z M400 513.17L408.65 513.17L408.65 499.17L400 499.17Z M408 513.17L416.65 513.17L416.65 499.17L408 499.17Z M416 513.17L424.65 513.17L424.65 499.17L416 499.17Z M424 513.17L432.65 513.17L432.65 499.17L424 499.17Z M432 513.17L440.65 513.17L440.65 499.17L432 499.17Z M440 513.17L448.65 513.17L448.65 499.17L440 499.17Z M448 513.17L456.65 513.17L456.65 499.17L448 499.17Z M456 513.17L463.57 513.17L463.57 499.17L456 499.17Z                                                                                      M344 529.17L352.65 529.17L352.65 518.67L344 518.67Z M352 529.17L360.65 529.17L360.65 515.17L352 515.17Z M360 529.17L368.65 529.17L368.65 515.17L360 515.17Z M368 529.17L376.65 529.17L376.65 515.17L368 515.17Z M376 529.17L384.65 529.17L384.65 515.17L376 515.17Z M384 529.17L392.65 529.17L392.65 515.17L384 515.17Z M392 529.17L400.65 529.17L400.65 515.17L392 515.17Z M400 529.17L408.65 529.17L408.65 515.17L400 515.17Z M408 529.17L416.65 529.17L416.65 515.17L408 515.17Z M416 529.17L424.65 529.17L424.65 515.17L416 515.17Z M424 529.17L432.65 529.17L432.65 515.17L424 515.17Z M432 529.17L440.65 529.17L440.65 515.17L432 515.17Z M440 529.17L448.65 529.17L448.65 515.17L440 515.17Z M448 529.17L456.65 529.17L456.65 515.17L448 515.17Z M456 529.17L464.65 529.17L464.65 520.42L456 520.42Z                                                                                      M344 545.17L346.17 545.17L346.17 531.17L344 531.17Z M352 545.17L360.65 545.17L360.65 539.92L352 539.92Z M360 545.17L368.65 545.17L368.65 531.17L360 531.17Z M368 545.17L376.65 545.17L376.65 531.17L368 531.17Z M376 545.17L384.65 545.17L384.65 531.17L376 531.17Z M384 545.17L392.65 545.17L392.65 531.17L384 531.17Z M392 545.17L400.65 545.17L400.65 531.17L392 531.17Z M400 545.17L408.65 545.17L408.65 531.17L400 531.17Z M408 545.17L416.65 545.17L416.65 531.17L408 531.17Z M416 545.17L424.65 545.17L424.65 531.17L416 531.17Z M424 545.17L432.65 545.17L432.65 531.17L424 531.17Z M432 545.17L440.65 545.17L440.65 531.17L432 531.17Z M440 545.17L448.65 545.17L448.65 531.17L440 531.17Z M448 545.17L456.65 545.17L456.65 539.92L448 539.92Z M456 545.17L457.08 545.17L457.08 531.17L456 531.17Z                                                                                        M360 561.17L368.65 561.17L368.65 555.92L360 555.92Z M368 561.17L376.65 561.17L376.65 547.17L368 547.17Z M376 561.17L384.65 561.17L384.65 547.17L376 547.17Z M384 561.17L392.65 561.17L392.65 547.17L384 547.17Z M392 561.17L400.65 561.17L400.65 547.17L392 547.17Z M400 561.17L408.65 561.17L408.65 547.17L400 547.17Z M408 561.17L416.65 561.17L416.65 547.17L408 547.17Z M416 561.17L424.65 561.17L424.65 547.17L416 547.17Z M424 561.17L432.65 561.17L432.65 547.17L424 547.17Z M432 561.17L440.65 561.17L440.65 547.17L432 547.17Z M440 561.17L448.65 561.17L448.65 557.67L440 557.67Z                                                                                          M360 577.17L361.08 577.17L361.08 563.17L360 563.17Z M368 577.17L374.49 577.17L374.49 563.17L368 563.17Z M376 577.17L384.65 577.17L384.65 575.42L376 575.42Z M384 577.17L392.65 577.17L392.65 575.42L384 575.42Z M392 577.17L400.65 577.17L400.65 575.42L392 575.42Z M400 577.17L408.65 577.17L408.65 575.42L400 575.42Z M408 577.17L416.65 577.17L416.65 575.42L408 575.42Z M416 577.17L424.65 577.17L424.65 575.42L416 575.42Z M424 577.17L432.65 577.17L432.65 575.42L424 575.42Z M432 577.17L437.41 577.17L437.41 563.17L432 563.17Z M440 577.17L441.08 577.17L441.08 563.17L440 563.17Z                                                                                                                                                                                                                                                                                                                                                                                                                                                                                                                                                                                                                                                                                                                                                                                                                                                                                                                                                                                                                                                                                                                                                                                                                                                                                                                                                                                                                                                                                                     " fill="#000000"/>
  </svg>